<svg width="32" height="32" viewBox="0 0 32 32" fill="none" xmlns="http://www.w3.org/2000/svg">
<g clip-path="url(#clip0_270_1522)">
<path d="M8.53335 12.2666H8.80002C9.82669 12.2666 10.6667 13.1066 10.6667 14.1333V23.4666C10.6667 24.4933 9.82669 25.3333 8.80002 25.3333H8.53335C7.50669 25.3333 6.66669 24.4933 6.66669 23.4666V14.1333C6.66669 13.1066 7.50669 12.2666 8.53335 12.2666ZM16 6.66663C17.0267 6.66663 17.8667 7.50663 17.8667 8.53329V23.4666C17.8667 24.4933 17.0267 25.3333 16 25.3333C14.9734 25.3333 14.1334 24.4933 14.1334 23.4666V8.53329C14.1334 7.50663 14.9734 6.66663 16 6.66663ZM23.4667 17.3333C24.4934 17.3333 25.3334 18.1733 25.3334 19.2V23.4666C25.3334 24.4933 24.4934 25.3333 23.4667 25.3333C22.44 25.3333 21.6 24.4933 21.6 23.4666V19.2C21.6 18.1733 22.44 17.3333 23.4667 17.3333Z" fill="#00DFC4"/>
</g>
<defs>
<clipPath id="clip0_270_1522">
<rect width="32" height="32" fill="white"/>
</clipPath>
</defs>
</svg>
