<svg width="24" height="25" viewBox="0 0 24 25" fill="none" xmlns="http://www.w3.org/2000/svg">
<g clip-path="url(#clip0_369_2521)">
<path d="M19.23 16.0557L16.69 15.7657C16.08 15.6957 15.48 15.9057 15.05 16.3357L13.21 18.1757C10.38 16.7357 8.06004 14.4257 6.62004 11.5857L8.47004 9.73566C8.90004 9.30566 9.11004 8.70566 9.04004 8.09566L8.75004 5.57566C8.63004 4.56566 7.78004 3.80566 6.76004 3.80566H5.03004C3.90004 3.80566 2.96004 4.74566 3.03004 5.87566C3.56004 14.4157 10.39 21.2357 18.92 21.7657C20.05 21.8357 20.99 20.8957 20.99 19.7657V18.0357C21 17.0257 20.24 16.1757 19.23 16.0557Z" fill="#00DFC4"/>
</g>
<defs>
<clipPath id="clip0_369_2521">
<rect width="24" height="24" fill="white" transform="translate(0 0.795898)"/>
</clipPath>
</defs>
</svg>
