<svg width="56" height="56" viewBox="0 0 56 56" fill="none" xmlns="http://www.w3.org/2000/svg">
<g clip-path="url(#clip0_245_1060)">
<path d="M28 29.75C31.8033 29.75 35.1633 30.66 37.8933 31.85C40.4133 32.97 42 35.49 42 38.22V42H14V38.2433C14 35.49 15.5867 32.97 18.1067 31.8733C20.8367 30.66 24.1967 29.75 28 29.75ZM9.33333 30.3333C11.9 30.3333 14 28.2333 14 25.6667C14 23.1 11.9 21 9.33333 21C6.76667 21 4.66667 23.1 4.66667 25.6667C4.66667 28.2333 6.76667 30.3333 9.33333 30.3333ZM11.97 32.9C11.1067 32.76 10.2433 32.6667 9.33333 32.6667C7.02333 32.6667 4.83 33.1567 2.84667 34.02C1.12 34.7667 0 36.4467 0 38.3367V42H10.5V38.2433C10.5 36.3067 11.0367 34.4867 11.97 32.9ZM46.6667 30.3333C49.2333 30.3333 51.3333 28.2333 51.3333 25.6667C51.3333 23.1 49.2333 21 46.6667 21C44.1 21 42 23.1 42 25.6667C42 28.2333 44.1 30.3333 46.6667 30.3333ZM56 38.3367C56 36.4467 54.88 34.7667 53.1533 34.02C51.17 33.1567 48.9767 32.6667 46.6667 32.6667C45.7567 32.6667 44.8933 32.76 44.03 32.9C44.9633 34.4867 45.5 36.3067 45.5 38.2433V42H56V38.3367ZM28 14C31.8733 14 35 17.1267 35 21C35 24.8733 31.8733 28 28 28C24.1267 28 21 24.8733 21 21C21 17.1267 24.1267 14 28 14Z" fill="#00DFC4"/>
</g>
<defs>
<clipPath id="clip0_245_1060">
<rect width="56" height="56" fill="white"/>
</clipPath>
</defs>
</svg>
