<svg width="48" height="49" viewBox="0 0 48 49" fill="none" xmlns="http://www.w3.org/2000/svg">
<path d="M20.0054 24.8573C20.0054 22.6463 21.7968 20.8535 24.0072 20.8535C26.2176 20.8535 28.0099 22.6463 28.0099 24.8573C28.0099 27.0684 26.2176 28.8612 24.0072 28.8612C21.7968 28.8612 20.0054 27.0684 20.0054 24.8573ZM17.8416 24.8573C17.8416 28.2636 20.602 31.0247 24.0072 31.0247C27.4124 31.0247 30.1728 28.2636 30.1728 24.8573C30.1728 21.4511 27.4124 18.69 24.0072 18.69C20.602 18.69 17.8416 21.4511 17.8416 24.8573ZM28.976 18.4455C28.9759 18.7305 29.0603 19.0092 29.2185 19.2463C29.3767 19.4834 29.6017 19.6682 29.8649 19.7774C30.1281 19.8866 30.4178 19.9153 30.6974 19.8598C30.9769 19.8043 31.2337 19.6671 31.4353 19.4656C31.6369 19.2641 31.7742 19.0074 31.8299 18.7278C31.8856 18.4482 31.8572 18.1584 31.7482 17.895C31.6393 17.6316 31.4547 17.4065 31.2178 17.248C30.9809 17.0895 30.7024 17.0049 30.4174 17.0048H30.4168C30.0349 17.005 29.6686 17.1568 29.3984 17.4269C29.1282 17.697 28.9763 18.0634 28.976 18.4455ZM19.1563 34.6337C17.9856 34.5804 17.3494 34.3854 16.9265 34.2206C16.3659 34.0023 15.9659 33.7423 15.5454 33.3222C15.1249 32.9021 14.8645 32.5024 14.6473 31.9416C14.4824 31.5188 14.2874 30.8822 14.2342 29.7112C14.176 28.4452 14.1644 28.0649 14.1644 24.8574C14.1644 21.65 14.177 21.2708 14.2342 20.0037C14.2875 18.8327 14.484 18.1973 14.6473 17.7733C14.8655 17.2125 15.1254 16.8124 15.5454 16.3917C15.9654 15.9711 16.365 15.7107 16.9265 15.4934C17.3492 15.3285 17.9856 15.1334 19.1563 15.0802C20.4219 15.022 20.8021 15.0103 24.0072 15.0103C27.2123 15.0103 27.5928 15.0229 28.8596 15.0802C30.0302 15.1335 30.6654 15.33 31.0893 15.4934C31.6499 15.7107 32.0499 15.9717 32.4705 16.3917C32.891 16.8118 33.1503 17.2125 33.3686 17.7733C33.5334 18.196 33.7284 18.8327 33.7816 20.0037C33.8398 21.2708 33.8515 21.65 33.8515 24.8574C33.8515 28.0649 33.8398 28.4441 33.7816 29.7112C33.7283 30.8822 33.5324 31.5187 33.3686 31.9416C33.1503 32.5024 32.8904 32.9025 32.4705 33.3222C32.0505 33.7419 31.6499 34.0023 31.0893 34.2206C30.6667 34.3855 30.0302 34.5805 28.8596 34.6337C27.5939 34.692 27.2137 34.7036 24.0072 34.7036C20.8007 34.7036 20.4216 34.692 19.1563 34.6337ZM19.0569 12.9194C17.7786 12.9776 16.9052 13.1804 16.1424 13.4773C15.3524 13.7839 14.6837 14.1952 14.0154 14.8626C13.3471 15.5301 12.9369 16.2001 12.6304 16.9903C12.3336 17.7538 12.1309 18.627 12.0727 19.9056C12.0135 21.1862 12 21.5956 12 24.8573C12 28.1191 12.0135 28.5285 12.0727 29.8091C12.1309 31.0878 12.3336 31.9609 12.6304 32.7244C12.9369 33.5142 13.3472 34.1849 14.0154 34.852C14.6836 35.5192 15.3524 35.9299 16.1424 36.2374C16.9066 36.5343 17.7786 36.737 19.0569 36.7953C20.3378 36.8535 20.7464 36.868 24.0072 36.868C27.268 36.868 27.6773 36.8545 28.9575 36.7953C30.2359 36.737 31.1087 36.5343 31.872 36.2374C32.6615 35.9299 33.3307 35.5195 33.999 34.852C34.6673 34.1846 35.0766 33.5142 35.384 32.7244C35.6808 31.9609 35.8844 31.0877 35.9417 29.8091C35.9999 28.5275 36.0134 28.1191 36.0134 24.8573C36.0134 21.5956 35.9999 21.1862 35.9417 19.9056C35.8835 18.6269 35.6808 17.7533 35.384 16.9903C35.0766 16.2005 34.6662 15.5311 33.999 14.8626C33.3318 14.1942 32.6615 13.7839 31.873 13.4773C31.1087 13.1804 30.2358 12.9767 28.9585 12.9194C27.6782 12.8612 27.2689 12.8467 24.0082 12.8467C20.7474 12.8467 20.3378 12.8602 19.0569 12.9194Z" fill="white"/>
</svg>
