<svg width="48" height="49" viewBox="0 0 48 49" fill="none" xmlns="http://www.w3.org/2000/svg">
<path d="M18.4787 34.5223V21.5561H14.1728V34.5223H18.4791H18.4787ZM16.3266 19.7861C17.8279 19.7861 18.7625 18.7904 18.7625 17.5462C18.7344 16.2735 17.8279 15.3057 16.3552 15.3057C14.8815 15.3057 13.9189 16.2735 13.9189 17.546C13.9189 18.7903 14.8532 19.786 16.2984 19.786H16.3263L16.3266 19.7861ZM20.8621 34.5223H25.1677V27.2822C25.1677 26.8951 25.1958 26.5071 25.3095 26.2307C25.6207 25.4561 26.3291 24.6543 27.5189 24.6543C29.0766 24.6543 29.7001 25.8432 29.7001 27.5865V34.5223H34.0056V27.0879C34.0056 23.1054 31.8816 21.2521 29.0487 21.2521C26.7261 21.2521 25.7061 22.5514 25.1393 23.4364H25.168V21.5565H20.8623C20.9185 22.7729 20.862 34.5227 20.862 34.5227L20.8621 34.5223Z" fill="white"/>
</svg>
