<svg width="40" height="41" viewBox="0 0 40 41" fill="none" xmlns="http://www.w3.org/2000/svg">
<rect width="40" height="40" rx="20" fill="#00DFC4"/>
<path d="M19.625 40.4375C17.1042 40.4375 14.8646 40.0052 12.9062 39.1406C10.9583 38.2656 9.42708 37.0625 8.3125 35.5312C7.19792 34 6.63542 32.2396 6.625 30.25H15.375C15.3854 30.8646 15.5729 31.4167 15.9375 31.9062C16.3125 32.3854 16.8229 32.7604 17.4688 33.0312C18.1146 33.3021 18.8542 33.4375 19.6875 33.4375C20.4896 33.4375 21.1979 33.2969 21.8125 33.0156C22.4271 32.724 22.9063 32.3229 23.25 31.8125C23.5938 31.3021 23.7604 30.7187 23.75 30.0625C23.7604 29.4167 23.5625 28.8437 23.1563 28.3437C22.7604 27.8437 22.2031 27.4531 21.4844 27.1719C20.7656 26.8906 19.9375 26.75 19 26.75H15.75V20.75H19C19.8646 20.75 20.625 20.6094 21.2812 20.3281C21.9479 20.0469 22.4635 19.6562 22.8281 19.1562C23.2031 18.6562 23.3854 18.0833 23.375 17.4375C23.3854 16.8125 23.2344 16.2604 22.9219 15.7813C22.6094 15.3021 22.1719 14.9271 21.6094 14.6563C21.0573 14.3854 20.4167 14.25 19.6875 14.25C18.8958 14.25 18.1875 14.3906 17.5625 14.6719C16.9479 14.9531 16.4635 15.3438 16.1094 15.8437C15.7552 16.3437 15.5729 16.9167 15.5625 17.5625H7.25C7.26042 15.6042 7.79688 13.875 8.85938 12.375C9.93229 10.875 11.401 9.69792 13.2656 8.84375C15.1302 7.98958 17.2708 7.5625 19.6875 7.5625C22.0521 7.5625 24.1406 7.96354 25.9531 8.76562C27.776 9.56771 29.1979 10.6719 30.2188 12.0781C31.25 13.474 31.7604 15.0729 31.75 16.875C31.7708 18.6667 31.1563 20.1354 29.9062 21.2812C28.6667 22.4271 27.0938 23.1042 25.1875 23.3125V23.5625C27.7708 23.8437 29.7135 24.6354 31.0156 25.9375C32.3177 27.2292 32.9583 28.8542 32.9375 30.8125C32.9479 32.6875 32.3854 34.349 31.25 35.7969C30.125 37.2448 28.5573 38.3802 26.5469 39.2031C24.5469 40.026 22.2396 40.4375 19.625 40.4375Z" fill="#0E1010"/>
</svg>
