<svg width="40" height="40" viewBox="0 0 40 40" fill="none" xmlns="http://www.w3.org/2000/svg">
<rect width="40" height="40" rx="20" fill="#00DFC4"/>
<path d="M7.625 40V33.75L19.5625 23.875C20.3542 23.2187 21.0313 22.6042 21.5938 22.0312C22.1667 21.4479 22.6042 20.849 22.9063 20.2344C23.2188 19.6198 23.375 18.9375 23.375 18.1875C23.375 17.3646 23.1979 16.6615 22.8438 16.0781C22.5 15.4948 22.0208 15.0469 21.4063 14.7344C20.7917 14.4115 20.0833 14.25 19.2813 14.25C18.4792 14.25 17.7708 14.4115 17.1563 14.7344C16.5521 15.0573 16.0833 15.5312 15.75 16.1562C15.4167 16.7812 15.25 17.5417 15.25 18.4375H7C7 16.1875 7.50521 14.25 8.51563 12.625C9.52604 11 10.9531 9.75 12.7969 8.875C14.6406 8 16.8021 7.5625 19.2813 7.5625C21.8438 7.5625 24.0625 7.97396 25.9375 8.79687C27.8229 9.60938 29.276 10.7552 30.2969 12.2344C31.3281 13.7135 31.8438 15.4479 31.8438 17.4375C31.8438 18.6667 31.5885 19.8906 31.0781 21.1094C30.5677 22.3177 29.651 23.6562 28.3281 25.125C27.0052 26.5938 25.125 28.3438 22.6875 30.375L19.6875 32.875V33.0625H32.1875V40H7.625Z" fill="#0E1010"/>
</svg>
