<svg width="40" height="41" viewBox="0 0 40 41" fill="none" xmlns="http://www.w3.org/2000/svg">
<rect width="40" height="40" rx="20" fill="#00DFC4"/>
<path d="M19.9375 40.4375C17.4792 40.4375 15.2969 40.0052 13.3906 39.1406C11.4948 38.2656 10 37.0625 8.90625 35.5312C7.82292 34 7.27083 32.2396 7.25 30.25H15.6875C15.7188 31.3542 16.1458 32.2344 16.9688 32.8906C17.8021 33.5469 18.7917 33.875 19.9375 33.875C20.8229 33.875 21.6042 33.6875 22.2813 33.3125C22.9583 32.9271 23.4896 32.3854 23.875 31.6875C24.2604 30.9896 24.4479 30.1771 24.4375 29.25C24.4479 28.3125 24.2604 27.5 23.875 26.8125C23.4896 26.1146 22.9583 25.5781 22.2813 25.2031C21.6042 24.8177 20.8229 24.625 19.9375 24.625C19.0208 24.625 18.1719 24.849 17.3906 25.2969C16.6198 25.7344 16.0521 26.3437 15.6875 27.125L8.0625 25.625L9.3125 8H30.8125V14.9375H16.4375L15.8125 22H16C16.5 21.0312 17.3646 20.2292 18.5938 19.5937C19.8229 18.9479 21.25 18.625 22.875 18.625C24.7813 18.625 26.4792 19.0677 27.9688 19.9531C29.4688 20.8385 30.651 22.0625 31.5156 23.625C32.3906 25.1771 32.8229 26.9688 32.8125 29C32.8229 31.2292 32.2917 33.2083 31.2188 34.9375C30.1563 36.6562 28.6615 38.0052 26.7344 38.9844C24.8073 39.9531 22.5417 40.4375 19.9375 40.4375Z" fill="#0E1010"/>
</svg>
