<svg width="524" height="524" viewBox="0 0 524 524" fill="none" xmlns="http://www.w3.org/2000/svg">
<path opacity="0.1" d="M261.975 436.412C358.314 436.412 436.412 358.314 436.412 261.975C436.412 165.637 358.314 87.5385 261.975 87.5385C165.637 87.5385 87.5385 165.637 87.5385 261.975C87.5385 358.314 165.637 436.412 261.975 436.412Z" stroke="#89938F" stroke-miterlimit="10"/>
<path opacity="0.05" d="M262 523C406.146 523 523 406.146 523 262C523 117.854 406.146 0.999878 262 0.999878C117.854 0.999878 1.00002 117.854 1.00002 262C1.00002 406.146 117.854 523 262 523Z" stroke="#89938F" stroke-miterlimit="10"/>
<path opacity="0.15" d="M261.975 369.729C321.486 369.729 369.729 321.486 369.729 261.975C369.729 202.465 321.486 154.222 261.975 154.222C202.465 154.222 154.222 202.465 154.222 261.975C154.222 321.486 202.465 369.729 261.975 369.729Z" stroke="#89938F" stroke-miterlimit="10"/>
<path opacity="0.3" d="M261.975 328.671C298.81 328.671 328.671 298.81 328.671 261.975C328.671 225.141 298.81 195.28 261.975 195.28C225.141 195.28 195.28 225.141 195.28 261.975C195.28 298.81 225.141 328.671 261.975 328.671Z" stroke="#89938F" stroke-miterlimit="10"/>
<path opacity="0.4" d="M261.975 303.034C284.651 303.034 303.034 284.651 303.034 261.975C303.034 239.299 284.651 220.917 261.975 220.917C239.299 220.917 220.917 239.299 220.917 261.975C220.917 284.651 239.299 303.034 261.975 303.034Z" stroke="#89938F" stroke-miterlimit="10"/>
<path opacity="0.6" d="M261.975 287.612C276.134 287.612 287.612 276.134 287.612 261.975C287.612 247.816 276.134 236.338 261.975 236.338C247.817 236.338 236.338 247.816 236.338 261.975C236.338 276.134 247.817 287.612 261.975 287.612Z" stroke="#89938F" stroke-miterlimit="10"/>
<path d="M262 274C268.627 274 274 268.627 274 262C274 255.372 268.627 250 262 250C255.373 250 250 255.372 250 262C250 268.627 255.373 274 262 274Z" fill="#00DFC4"/>
</svg>
