<svg width="48" height="49" viewBox="0 0 48 49" fill="none" xmlns="http://www.w3.org/2000/svg">
<path d="M31.531 17.899C31.3718 17.8167 31.2168 17.7264 31.0666 17.6287C30.6298 17.3399 30.2293 16.9996 29.8738 16.6152C28.9842 15.5974 28.652 14.5648 28.5296 13.8419H28.5345C28.4323 13.2418 28.4746 12.8535 28.481 12.8535H24.4293V28.5206C24.4293 28.731 24.4293 28.9389 24.4204 29.1443C24.4204 29.1699 24.418 29.1935 24.4165 29.221C24.4165 29.2323 24.4165 29.2441 24.414 29.2559C24.414 29.2588 24.414 29.2618 24.414 29.2647C24.3713 29.8269 24.1911 30.3699 23.8893 30.846C23.5875 31.3222 23.1733 31.7169 22.6831 31.9953C22.1722 32.286 21.5944 32.4384 21.0067 32.4377C19.1189 32.4377 17.589 30.8984 17.589 28.9974C17.589 27.0964 19.1189 25.5571 21.0067 25.5571C21.364 25.5567 21.7192 25.613 22.0589 25.7237L22.0638 21.5983C21.0324 21.465 19.9846 21.547 18.9864 21.839C17.9883 22.131 17.0615 22.6267 16.2645 23.2948C15.5661 23.9016 14.979 24.6256 14.5296 25.4342C14.3585 25.7291 13.7132 26.914 13.6351 28.8371C13.5859 29.9287 13.9138 31.0596 14.07 31.527V31.5368C14.1683 31.812 14.5492 32.7512 15.17 33.543C15.6705 34.1781 16.2619 34.736 16.925 35.1988V35.1889L16.9348 35.1988C18.8963 36.5316 21.0711 36.4441 21.0711 36.4441C21.4475 36.4289 22.7086 36.4441 24.1408 35.7654C25.7292 35.013 26.6335 33.8919 26.6335 33.8919C27.2112 33.2221 27.6706 32.4587 27.992 31.6346C28.3586 30.6708 28.481 29.5149 28.481 29.0529V20.7411C28.5301 20.7706 29.1848 21.2036 29.1848 21.2036C29.1848 21.2036 30.1279 21.8081 31.5994 22.2018C32.655 22.4819 34.0774 22.5409 34.0774 22.5409V18.5187C33.579 18.5728 32.5671 18.4155 31.531 17.899Z" fill="white"/>
</svg>
