<svg width="56" height="56" viewBox="0 0 56 56" fill="none" xmlns="http://www.w3.org/2000/svg">
<g clip-path="url(#clip0_245_1053)">
<path d="M6.51 34.4867L6.3 34.2766C5.39 33.3666 5.39 31.8967 6.3 30.9867L20.51 16.7533C21.42 15.8433 22.89 15.8433 23.8 16.7533L31.4767 24.43L46.3867 7.67665C47.2733 6.67332 48.8367 6.64999 49.77 7.58332C50.6333 8.46999 50.68 9.86998 49.8633 10.78L33.1333 29.61C32.2467 30.6133 30.7067 30.66 29.75 29.7033L22.1667 22.12L9.8 34.4867C8.91333 35.3967 7.42 35.3967 6.51 34.4867ZM9.8 48.4867L22.1667 36.12L29.75 43.7033C30.7067 44.66 32.2467 44.6133 33.1333 43.61L49.8633 24.78C50.68 23.87 50.6333 22.47 49.77 21.5833C48.8367 20.65 47.2733 20.6733 46.3867 21.6767L31.4767 38.43L23.8 30.7533C22.89 29.8433 21.42 29.8433 20.51 30.7533L6.3 44.9867C5.39 45.8967 5.39 47.3667 6.3 48.2767L6.51 48.4867C7.42 49.3967 8.91333 49.3967 9.8 48.4867Z" fill="#00DFC4"/>
</g>
<defs>
<clipPath id="clip0_245_1053">
<rect width="56" height="56" fill="white"/>
</clipPath>
</defs>
</svg>
