<svg width="35" height="48" viewBox="0 0 35 48" fill="none" xmlns="http://www.w3.org/2000/svg">
<g id="swin_logo" clip-path="url(#clip0_362_207)">
<path id="Vector" d="M33.7143 16.8449L23.4315 27.5785C22.7806 28.1734 21.7498 28.1193 21.153 27.4702C20.6105 26.8753 20.6105 25.9557 21.153 25.3606L28.6146 17.44V17.3858H5.61202C5.61202 17.3858 5.55777 17.3858 5.55777 17.44L18.2526 30.0973C18.5239 30.3677 18.6866 30.6923 18.7409 31.0709L18.6151 46.2692C18.6693 46.9182 18.3438 47.5133 17.747 47.8378C17.53 47.946 17.2587 48.0001 16.9875 48.0001H11.3996C10.5316 47.8378 9.93484 46.9724 10.0976 46.1069C10.2061 45.4578 10.7486 44.9169 11.3996 44.8087H15.1972C15.1972 44.8087 15.2515 44.8087 15.2515 44.7547L15.5401 31.9364V31.8823L0.458126 16.8449C0.0241141 16.4123 -0.138643 15.709 0.132614 15.114C0.403871 14.519 0.946392 14.1404 1.59741 14.1404H32.575C33.443 14.1404 34.1483 14.8435 34.1483 15.7631C34.1483 16.1418 33.9855 16.5204 33.7143 16.8449Z" fill="#5CFAF8"/>
<path id="Vector_2" d="M19.2385 2.16433C19.2385 0.969003 18.2695 0 17.0741 0C15.8788 0 14.9098 0.969003 14.9098 2.16433V7.6473C14.9098 8.84262 15.8788 9.81162 17.0741 9.81162C18.2695 9.81162 19.2385 8.84262 19.2385 7.6473V2.16433Z" fill="#5CFAF8"/>
<path id="Vector_3" d="M8.25011 5.3712L8.2501 5.37121C7.47516 6.17368 7.49748 7.45243 8.29996 8.22738L9.55511 9.43946C10.3576 10.2144 11.6363 10.1921 12.4113 9.38961L12.4113 9.3896C13.1862 8.58712 13.1639 7.30837 12.3614 6.53343L11.1063 5.32135C10.3038 4.5464 9.02505 4.56872 8.25011 5.3712Z" fill="#5CFAF8"/>
<path id="Vector_4" d="M25.5473 5.21784L25.5473 5.21784C24.7118 4.47864 23.4352 4.55671 22.696 5.39223L21.5398 6.69905C20.8006 7.53457 20.8787 8.81113 21.7142 9.55033L21.7142 9.55034C22.5497 10.2895 23.8263 10.2115 24.5655 9.37594L25.7217 8.06912C26.4609 7.2336 26.3828 5.95704 25.5473 5.21784Z" fill="#5CFAF8"/>
<path id="Vector_5" d="M33.7143 16.8449L23.4315 27.5785C22.7806 28.1734 21.7498 28.1193 21.153 27.4702C20.6105 26.8753 20.6105 25.9557 21.153 25.3606L28.6146 17.44V17.3858H5.61202C5.61202 17.3858 5.55777 17.3858 5.55777 17.44L18.2526 30.0973C18.5239 30.3677 18.6866 30.6923 18.7409 31.0709L18.6151 46.2692C18.6693 46.9182 18.3438 47.5133 17.747 47.8378C17.53 47.946 17.2587 48.0001 16.9875 48.0001H11.3996C10.5316 47.8378 9.93484 46.9724 10.0976 46.1069C10.2061 45.4578 10.7486 44.9169 11.3996 44.8087H15.1972C15.1972 44.8087 15.2515 44.8087 15.2515 44.7547L15.5401 31.9364V31.8823L0.458126 16.8449C0.0241141 16.4123 -0.138643 15.709 0.132614 15.114C0.403871 14.519 0.946392 14.1404 1.59741 14.1404H32.575C33.443 14.1404 34.1483 14.8435 34.1483 15.7631C34.1483 16.1418 33.9855 16.5204 33.7143 16.8449Z" fill="#5CFAF8"/>
</g>
<defs>
<clipPath id="clip0_362_207">
<rect width="34.1483" height="48" fill="white"/>
</clipPath>
</defs>
</svg>
