<svg width="86" height="30" viewBox="0 0 86 30" fill="none" xmlns="http://www.w3.org/2000/svg">
<g id="Swin">
<path d="M16.6533 9.26231C16.5278 8.0888 15.9993 7.17508 15.0677 6.52114C14.145 5.8672 12.9446 5.54023 11.4665 5.54023C10.4274 5.54023 9.53606 5.697 8.79254 6.01053C8.04902 6.32406 7.48018 6.74957 7.08603 7.28705C6.69187 7.82454 6.49032 8.43817 6.48136 9.12794C6.48136 9.70126 6.61125 10.1984 6.87103 10.6195C7.13978 11.0405 7.50258 11.3988 7.95944 11.6944C8.4163 11.9811 8.92243 12.223 9.47783 12.42C10.0332 12.6171 10.5931 12.7828 11.1575 12.9172L13.7374 13.5622C14.7765 13.8041 15.7754 14.131 16.7339 14.5431C17.7013 14.9552 18.5658 15.4747 19.3272 16.1018C20.0976 16.7289 20.7068 17.4858 21.1547 18.3727C21.6026 19.2595 21.8265 20.2987 21.8265 21.4901C21.8265 23.1025 21.4145 24.5224 20.5903 25.7496C19.7662 26.9679 18.5748 27.922 17.0161 28.6117C15.4663 29.2926 13.5896 29.633 11.3859 29.633C9.24492 29.633 7.38612 29.3015 5.8095 28.6386C4.24184 27.9757 3.01458 27.0083 2.12773 25.7362C1.24984 24.4642 0.775064 22.9144 0.7034 21.087H5.60795C5.67961 22.0455 5.97523 22.8428 6.49479 23.4788C7.01436 24.1148 7.6907 24.5896 8.5238 24.9031C9.36586 25.2166 10.3065 25.3734 11.3456 25.3734C12.4295 25.3734 13.3791 25.2122 14.1943 24.8897C15.0184 24.5582 15.6634 24.1014 16.1292 23.5191C16.595 22.9279 16.8324 22.2381 16.8414 21.4498C16.8324 20.7331 16.6219 20.1419 16.2098 19.6761C15.7978 19.2013 15.22 18.8071 14.4764 18.4936C13.7419 18.1711 12.8819 17.8845 11.8965 17.6336L8.76567 16.8274C6.49927 16.2451 4.70766 15.3628 3.39082 14.1803C2.08294 12.9889 1.429 11.4078 1.429 9.43699C1.429 7.81558 1.86795 6.39573 2.74584 5.17743C3.63269 3.95913 4.83755 3.01405 6.36042 2.3422C7.8833 1.66138 9.60773 1.32098 11.5337 1.32098C13.4866 1.32098 15.1976 1.66138 16.6667 2.3422C18.1448 3.01405 19.3048 3.95017 20.1469 5.15055C20.989 6.34198 21.4234 7.71256 21.4503 9.26231H16.6533Z" fill="#808080"/>
<path d="M30.3154 29.2164L24.4837 8.57702H29.442L33.07 23.0891H33.2582L36.9668 8.57702H41.8713L45.58 23.0085H45.7816L49.3558 8.57702H54.3276L48.4824 29.2164H43.4166L39.5467 15.2687H39.2645L35.3947 29.2164H30.3154Z" fill="#808080"/>
<path d="M57.7238 29.2164V8.57702H62.588V29.2164H57.7238ZM60.1693 5.64773C59.3989 5.64773 58.736 5.39242 58.1806 4.88181C57.6252 4.36224 57.3475 3.73966 57.3475 3.01405C57.3475 2.27949 57.6252 1.65691 58.1806 1.14629C58.736 0.626727 59.3989 0.366943 60.1693 0.366943C60.9487 0.366943 61.6116 0.626727 62.158 1.14629C62.7134 1.65691 62.9911 2.27949 62.9911 3.01405C62.9911 3.73966 62.7134 4.36224 62.158 4.88181C61.6116 5.39242 60.9487 5.64773 60.1693 5.64773Z" fill="#808080"/>
<path d="M72.4542 17.123V29.2164H67.59V8.57702H72.2392V12.0841H72.4811C72.9559 10.9285 73.7128 10.0103 74.752 9.3295C75.8001 8.64868 77.0945 8.30828 78.6353 8.30828C80.0596 8.30828 81.3003 8.61285 82.3574 9.222C83.4234 9.83115 84.2475 10.7135 84.8298 11.8691C85.421 13.0247 85.7122 14.4266 85.7032 16.0749V29.2164H80.839V16.8274C80.839 15.4479 80.4806 14.3684 79.764 13.5891C79.0563 12.8097 78.0754 12.42 76.8213 12.42C75.9703 12.42 75.2133 12.6082 74.5504 12.9844C73.8965 13.3517 73.3814 13.8847 73.0051 14.5834C72.6379 15.2821 72.4542 16.1287 72.4542 17.123Z" fill="#808080"/>
</g>
</svg>
