<svg width="86" height="30" viewBox="0 0 86 30" fill="none" xmlns="http://www.w3.org/2000/svg">
<g id="Swin">
<path d="M16.0982 9.26231C15.9727 8.0888 15.4442 7.17508 14.5126 6.52114C13.5899 5.8672 12.3895 5.54023 10.9114 5.54023C9.87229 5.54023 8.98096 5.697 8.23744 6.01053C7.49392 6.32406 6.92508 6.74957 6.53093 7.28705C6.13677 7.82454 5.93522 8.43817 5.92626 9.12794C5.92626 9.70126 6.05615 10.1984 6.31593 10.6195C6.58468 11.0405 6.94748 11.3988 7.40434 11.6944C7.8612 11.9811 8.36733 12.223 8.92273 12.42C9.47814 12.6171 10.038 12.7828 10.6024 12.9172L13.1823 13.5622C14.2214 13.8041 15.2203 14.131 16.1788 14.5431C17.1462 14.9552 18.0107 15.4747 18.7721 16.1018C19.5425 16.7289 20.1517 17.4858 20.5996 18.3727C21.0475 19.2595 21.2714 20.2987 21.2714 21.4901C21.2714 23.1025 20.8594 24.5224 20.0352 25.7496C19.2111 26.9679 18.0197 27.922 16.461 28.6117C14.9112 29.2926 13.0345 29.633 10.8308 29.633C8.68983 29.633 6.83102 29.3015 5.2544 28.6386C3.68674 27.9757 2.45948 27.0083 1.57263 25.7362C0.694743 24.4642 0.219965 22.9144 0.1483 21.087H5.05285C5.12451 22.0455 5.42013 22.8428 5.9397 23.4788C6.45926 24.1148 7.1356 24.5896 7.9687 24.9031C8.81076 25.2166 9.75136 25.3734 10.7905 25.3734C11.8744 25.3734 12.824 25.2122 13.6392 24.8897C14.4633 24.5582 15.1083 24.1014 15.5741 23.5191C16.0399 22.9279 16.2773 22.2381 16.2863 21.4498C16.2773 20.7331 16.0668 20.1419 15.6547 19.6761C15.2427 19.2013 14.6649 18.8071 13.9213 18.4936C13.1868 18.1711 12.3268 17.8845 11.3414 17.6336L8.21057 16.8274C5.94417 16.2451 4.15256 15.3628 2.83572 14.1803C1.52784 12.9889 0.873904 11.4078 0.873904 9.43699C0.873904 7.81558 1.31285 6.39573 2.19074 5.17743C3.07759 3.95913 4.28245 3.01405 5.80532 2.3422C7.3282 1.66138 9.05263 1.32098 10.9786 1.32098C12.9315 1.32098 14.6425 1.66138 16.1116 2.3422C17.5897 3.01405 18.7497 3.95017 19.5918 5.15055C20.4339 6.34198 20.8683 7.71256 20.8952 9.26231H16.0982Z" fill="white"/>
<path d="M29.7603 29.2164L23.9286 8.57702H28.8869L32.5149 23.0891H32.7031L36.4117 8.57702H41.3162L45.0249 23.0085H45.2265L48.8007 8.57702H53.7725L47.9273 29.2164H42.8615L38.9916 15.2687H38.7094L34.8396 29.2164H29.7603Z" fill="white"/>
<path d="M57.1687 29.2164V8.57702H62.0329V29.2164H57.1687ZM59.6142 5.64773C58.8438 5.64773 58.1809 5.39242 57.6255 4.88181C57.0701 4.36224 56.7924 3.73966 56.7924 3.01405C56.7924 2.27949 57.0701 1.65691 57.6255 1.14629C58.1809 0.626727 58.8438 0.366943 59.6142 0.366943C60.3936 0.366943 61.0565 0.626727 61.6029 1.14629C62.1583 1.65691 62.436 2.27949 62.436 3.01405C62.436 3.73966 62.1583 4.36224 61.6029 4.88181C61.0565 5.39242 60.3936 5.64773 59.6142 5.64773Z" fill="white"/>
<path d="M71.8991 17.123V29.2164H67.0349V8.57702H71.6841V12.0841H71.926C72.4008 10.9285 73.1577 10.0103 74.1969 9.3295C75.245 8.64868 76.5394 8.30828 78.0802 8.30828C79.5045 8.30828 80.7452 8.61285 81.8023 9.222C82.8683 9.83115 83.6924 10.7135 84.2747 11.8691C84.8659 13.0247 85.1571 14.4266 85.1481 16.0749V29.2164H80.2839V16.8274C80.2839 15.4479 79.9255 14.3684 79.2089 13.5891C78.5012 12.8097 77.5203 12.42 76.2662 12.42C75.4152 12.42 74.6582 12.6082 73.9953 12.9844C73.3414 13.3517 72.8263 13.8847 72.45 14.5834C72.0828 15.2821 71.8991 16.1287 71.8991 17.123Z" fill="white"/>
</g>
</svg>
