<svg width="136" height="48" viewBox="0 0 136 48" fill="none" xmlns="http://www.w3.org/2000/svg">
<g clip-path="url(#clip0_245_917)">
<path d="M34.4177 16.8449L24.1349 27.5785C23.484 28.1734 22.4532 28.1193 21.8564 27.4702C21.3139 26.8753 21.3139 25.9557 21.8564 25.3606L29.318 17.44V17.3858H6.31542C6.31542 17.3858 6.26116 17.3858 6.26116 17.44L18.956 30.0973C19.2273 30.3677 19.39 30.6923 19.4443 31.0709L19.3185 46.2692C19.3727 46.9182 19.0472 47.5133 18.4504 47.8378C18.2334 47.946 17.9621 48.0001 17.6909 48.0001H12.103C11.235 47.8378 10.6382 46.9724 10.801 46.1069C10.9095 45.4578 11.452 44.9169 12.103 44.8087H15.9006C15.9006 44.8087 15.9549 44.8087 15.9549 44.7547L16.2435 31.9364V31.8823L1.16153 16.8449C0.727514 16.4123 0.564756 15.709 0.836013 15.114C1.10727 14.519 1.64979 14.1404 2.30081 14.1404H33.2784C34.1464 14.1404 34.8517 14.8435 34.8517 15.7631C34.8517 16.1418 34.6889 16.5204 34.4177 16.8449Z" fill="#808080"/>
<path d="M19.9419 2.16433C19.9419 0.969003 18.9729 0 17.7775 0C16.5822 0 15.6132 0.969003 15.6132 2.16433V7.6473C15.6132 8.84262 16.5822 9.81162 17.7775 9.81162C18.9729 9.81162 19.9419 8.84262 19.9419 7.6473V2.16433Z" fill="#808080"/>
<path d="M8.95352 5.3712L8.95351 5.37121C8.17857 6.17368 8.20089 7.45243 9.00337 8.22738L10.2585 9.43946C11.061 10.2144 12.3397 10.1921 13.1147 9.38961L13.1147 9.3896C13.8896 8.58712 13.8673 7.30837 13.0648 6.53343L11.8097 5.32135C11.0072 4.5464 9.72846 4.56872 8.95352 5.3712Z" fill="#808080"/>
<path d="M26.2507 5.21784L26.2507 5.21784C25.4151 4.47864 24.1386 4.55671 23.3994 5.39223L22.2432 6.69905C21.504 7.53457 21.5821 8.81113 22.4176 9.55033L22.4176 9.55034C23.2531 10.2895 24.5297 10.2115 25.2689 9.37594L26.4251 8.06912C27.1643 7.2336 27.0862 5.95704 26.2507 5.21784Z" fill="#808080"/>
<path d="M34.4177 16.8449L24.1349 27.5785C23.484 28.1734 22.4532 28.1193 21.8564 27.4702C21.3139 26.8753 21.3139 25.9557 21.8564 25.3606L29.318 17.44V17.3858H6.31542C6.31542 17.3858 6.26116 17.3858 6.26116 17.44L18.956 30.0973C19.2273 30.3677 19.39 30.6923 19.4443 31.0709L19.3185 46.2692C19.3727 46.9182 19.0472 47.5133 18.4504 47.8378C18.2334 47.946 17.9621 48.0001 17.6909 48.0001H12.103C11.235 47.8378 10.6382 46.9724 10.801 46.1069C10.9095 45.4578 11.452 44.9169 12.103 44.8087H15.9006C15.9006 44.8087 15.9549 44.8087 15.9549 44.7547L16.2435 31.9364V31.8823L1.16153 16.8449C0.727514 16.4123 0.564756 15.709 0.836013 15.114C1.10727 14.519 1.64979 14.1404 2.30081 14.1404H33.2784C34.1464 14.1404 34.8517 14.8435 34.8517 15.7631C34.8517 16.1418 34.6889 16.5204 34.4177 16.8449Z" fill="#808080"/>
</g>
<path d="M66.8015 18.2623C66.6761 17.0888 66.1476 16.1751 65.216 15.5211C64.2933 14.8672 63.0929 14.5402 61.6148 14.5402C60.5757 14.5402 59.6843 14.697 58.9408 15.0105C58.1973 15.3241 57.6285 15.7496 57.2343 16.2871C56.8402 16.8245 56.6386 17.4382 56.6296 18.1279C56.6296 18.7013 56.7595 19.1984 57.0193 19.6195C57.2881 20.0405 57.6509 20.3988 58.1077 20.6944C58.5646 20.9811 59.0707 21.223 59.6261 21.42C60.1815 21.6171 60.7414 21.7828 61.3058 21.9172L63.8857 22.5622C64.9248 22.8041 65.9236 23.131 66.8822 23.5431C67.8496 23.9552 68.7141 24.4747 69.4755 25.1018C70.2459 25.7289 70.8551 26.4858 71.303 27.3727C71.7509 28.2595 71.9748 29.2987 71.9748 30.4901C71.9748 32.1025 71.5628 33.5224 70.7386 34.7496C69.9145 35.9679 68.723 36.922 67.1643 37.6117C65.6146 38.2926 63.7379 38.633 61.5342 38.633C59.3932 38.633 57.5344 38.3015 55.9578 37.6386C54.3901 36.9757 53.1629 36.0083 52.276 34.7362C51.3981 33.4642 50.9233 31.9144 50.8517 30.087H55.7562C55.8279 31.0455 56.1235 31.8428 56.6431 32.4788C57.1626 33.1148 57.839 33.5896 58.6721 33.9031C59.5141 34.2166 60.4547 34.3734 61.4939 34.3734C62.5778 34.3734 63.5274 34.2122 64.3425 33.8897C65.1667 33.5582 65.8117 33.1014 66.2775 32.5191C66.7433 31.9279 66.9807 31.2381 66.9897 30.4498C66.9807 29.7331 66.7702 29.1419 66.3581 28.6761C65.946 28.2013 65.3682 27.8071 64.6247 27.4936C63.8902 27.1711 63.0302 26.8845 62.0448 26.6336L58.914 25.8274C56.6476 25.2451 54.8559 24.3628 53.5391 23.1803C52.2312 21.9889 51.5773 20.4078 51.5773 18.437C51.5773 16.8156 52.0162 15.3957 52.8941 14.1774C53.781 12.9591 54.9858 12.0141 56.5087 11.3422C58.0316 10.6614 59.756 10.321 61.682 10.321C63.6349 10.321 65.3458 10.6614 66.815 11.3422C68.2931 12.0141 69.4531 12.9502 70.2952 14.1506C71.1372 15.342 71.5717 16.7126 71.5986 18.2623H66.8015Z" fill="#808080"/>
<path d="M80.4637 38.2164L74.632 17.577H79.5903L83.2183 32.0891H83.4064L87.1151 17.577H92.0196L95.7283 32.0085H95.9298L99.5041 17.577H104.476L98.6307 38.2164H93.5649L89.695 24.2687H89.4128L85.5429 38.2164H80.4637Z" fill="#808080"/>
<path d="M107.872 38.2164V17.577H112.736V38.2164H107.872ZM110.318 14.6477C109.547 14.6477 108.884 14.3924 108.329 13.8818C107.774 13.3622 107.496 12.7397 107.496 12.0141C107.496 11.2795 107.774 10.6569 108.329 10.1463C108.884 9.62673 109.547 9.36694 110.318 9.36694C111.097 9.36694 111.76 9.62673 112.306 10.1463C112.862 10.6569 113.139 11.2795 113.139 12.0141C113.139 12.7397 112.862 13.3622 112.306 13.8818C111.76 14.3924 111.097 14.6477 110.318 14.6477Z" fill="#808080"/>
<path d="M122.603 26.123V38.2164H117.738V17.577H122.388V21.0841H122.629C123.104 19.9285 123.861 19.0103 124.9 18.3295C125.948 17.6487 127.243 17.3083 128.784 17.3083C130.208 17.3083 131.449 17.6129 132.506 18.222C133.572 18.8311 134.396 19.7135 134.978 20.8691C135.569 22.0247 135.86 23.4266 135.851 25.0749V38.2164H130.987V25.8274C130.987 24.4479 130.629 23.3684 129.912 22.5891C129.205 21.8097 128.224 21.42 126.97 21.42C126.119 21.42 125.362 21.6082 124.699 21.9844C124.045 22.3517 123.53 22.8847 123.153 23.5834C122.786 24.2821 122.603 25.1287 122.603 26.123Z" fill="#808080"/>
<defs>
<clipPath id="clip0_245_917">
<rect width="34.1483" height="48" fill="white" transform="translate(0.7034)"/>
</clipPath>
</defs>
</svg>
