<svg width="136" height="48" viewBox="0 0 136 48" fill="none" xmlns="http://www.w3.org/2000/svg">
<g clip-path="url(#clip0_452_233)">
<path d="M33.7143 16.8449L23.4315 27.5785C22.7806 28.1734 21.7498 28.1193 21.153 27.4702C20.6105 26.8753 20.6105 25.9557 21.153 25.3606L28.6146 17.44V17.3858H5.61202C5.61202 17.3858 5.55777 17.3858 5.55777 17.44L18.2526 30.0973C18.5239 30.3677 18.6866 30.6923 18.7409 31.0709L18.6151 46.2692C18.6693 46.9182 18.3438 47.5133 17.747 47.8378C17.53 47.946 17.2587 48.0001 16.9875 48.0001H11.3996C10.5316 47.8378 9.93484 46.9724 10.0976 46.1069C10.2061 45.4578 10.7486 44.9169 11.3996 44.8087H15.1972C15.1972 44.8087 15.2515 44.8087 15.2515 44.7547L15.5401 31.9364V31.8823L0.458126 16.8449C0.0241141 16.4123 -0.138643 15.709 0.132614 15.114C0.403871 14.519 0.946392 14.1404 1.59741 14.1404H32.575C33.443 14.1404 34.1483 14.8435 34.1483 15.7631C34.1483 16.1418 33.9855 16.5204 33.7143 16.8449Z" fill="#5CFAF8"/>
<path d="M19.2385 2.16433C19.2385 0.969003 18.2695 0 17.0741 0C15.8788 0 14.9098 0.969003 14.9098 2.16433V7.6473C14.9098 8.84262 15.8788 9.81162 17.0741 9.81162C18.2695 9.81162 19.2385 8.84262 19.2385 7.6473V2.16433Z" fill="#5CFAF8"/>
<path d="M8.25011 5.3712L8.2501 5.37121C7.47516 6.17368 7.49748 7.45243 8.29996 8.22738L9.55511 9.43946C10.3576 10.2144 11.6363 10.1921 12.4113 9.38961L12.4113 9.3896C13.1862 8.58712 13.1639 7.30837 12.3614 6.53343L11.1063 5.32135C10.3038 4.5464 9.02505 4.56872 8.25011 5.3712Z" fill="#5CFAF8"/>
<path d="M25.5473 5.21784L25.5473 5.21784C24.7118 4.47864 23.4352 4.55671 22.696 5.39223L21.5398 6.69905C20.8006 7.53457 20.8787 8.81113 21.7142 9.55033L21.7142 9.55034C22.5497 10.2895 23.8263 10.2115 24.5655 9.37594L25.7217 8.06912C26.4609 7.2336 26.3828 5.95704 25.5473 5.21784Z" fill="#5CFAF8"/>
<path d="M33.7143 16.8449L23.4315 27.5785C22.7806 28.1734 21.7498 28.1193 21.153 27.4702C20.6105 26.8753 20.6105 25.9557 21.153 25.3606L28.6146 17.44V17.3858H5.61202C5.61202 17.3858 5.55777 17.3858 5.55777 17.44L18.2526 30.0973C18.5239 30.3677 18.6866 30.6923 18.7409 31.0709L18.6151 46.2692C18.6693 46.9182 18.3438 47.5133 17.747 47.8378C17.53 47.946 17.2587 48.0001 16.9875 48.0001H11.3996C10.5316 47.8378 9.93484 46.9724 10.0976 46.1069C10.2061 45.4578 10.7486 44.9169 11.3996 44.8087H15.1972C15.1972 44.8087 15.2515 44.8087 15.2515 44.7547L15.5401 31.9364V31.8823L0.458126 16.8449C0.0241141 16.4123 -0.138643 15.709 0.132614 15.114C0.403871 14.519 0.946392 14.1404 1.59741 14.1404H32.575C33.443 14.1404 34.1483 14.8435 34.1483 15.7631C34.1483 16.1418 33.9855 16.5204 33.7143 16.8449Z" fill="#5CFAF8"/>
</g>
<path d="M66.0982 18.2623C65.9727 17.0888 65.4442 16.1751 64.5126 15.5211C63.5899 14.8672 62.3895 14.5402 60.9114 14.5402C59.8723 14.5402 58.981 14.697 58.2374 15.0105C57.4939 15.3241 56.9251 15.7496 56.5309 16.2871C56.1368 16.8245 55.9352 17.4382 55.9263 18.1279C55.9263 18.7013 56.0562 19.1984 56.3159 19.6195C56.5847 20.0405 56.9475 20.3988 57.4043 20.6944C57.8612 20.9811 58.3673 21.223 58.9227 21.42C59.4781 21.6171 60.038 21.7828 60.6024 21.9172L63.1823 22.5622C64.2214 22.8041 65.2203 23.131 66.1788 23.5431C67.1462 23.9552 68.0107 24.4747 68.7721 25.1018C69.5425 25.7289 70.1517 26.4858 70.5996 27.3727C71.0475 28.2595 71.2714 29.2987 71.2714 30.4901C71.2714 32.1025 70.8594 33.5224 70.0352 34.7496C69.2111 35.9679 68.0197 36.922 66.461 37.6117C64.9112 38.2926 63.0345 38.633 60.8308 38.633C58.6898 38.633 56.831 38.3015 55.2544 37.6386C53.6867 36.9757 52.4595 36.0083 51.5726 34.7362C50.6947 33.4642 50.22 31.9144 50.1483 30.087H55.0528C55.1245 31.0455 55.4201 31.8428 55.9397 32.4788C56.4593 33.1148 57.1356 33.5896 57.9687 33.9031C58.8108 34.2166 59.7514 34.3734 60.7905 34.3734C61.8744 34.3734 62.824 34.2122 63.6392 33.8897C64.4633 33.5582 65.1083 33.1014 65.5741 32.5191C66.0399 31.9279 66.2773 31.2381 66.2863 30.4498C66.2773 29.7331 66.0668 29.1419 65.6547 28.6761C65.2427 28.2013 64.6649 27.8071 63.9213 27.4936C63.1868 27.1711 62.3268 26.8845 61.3414 26.6336L58.2106 25.8274C55.9442 25.2451 54.1526 24.3628 52.8357 23.1803C51.5278 21.9889 50.8739 20.4078 50.8739 18.437C50.8739 16.8156 51.3128 15.3957 52.1907 14.1774C53.0776 12.9591 54.2825 12.0141 55.8053 11.3422C57.3282 10.6614 59.0526 10.321 60.9786 10.321C62.9315 10.321 64.6425 10.6614 66.1116 11.3422C67.5897 12.0141 68.7497 12.9502 69.5918 14.1506C70.4339 15.342 70.8683 16.7126 70.8952 18.2623H66.0982Z" fill="white"/>
<path d="M79.7603 38.2164L73.9286 17.577H78.8869L82.5149 32.0891H82.7031L86.4117 17.577H91.3162L95.0249 32.0085H95.2265L98.8007 17.577H103.772L97.9273 38.2164H92.8615L88.9916 24.2687H88.7094L84.8396 38.2164H79.7603Z" fill="white"/>
<path d="M107.169 38.2164V17.577H112.033V38.2164H107.169ZM109.614 14.6477C108.844 14.6477 108.181 14.3924 107.626 13.8818C107.07 13.3622 106.792 12.7397 106.792 12.0141C106.792 11.2795 107.07 10.6569 107.626 10.1463C108.181 9.62673 108.844 9.36694 109.614 9.36694C110.394 9.36694 111.056 9.62673 111.603 10.1463C112.158 10.6569 112.436 11.2795 112.436 12.0141C112.436 12.7397 112.158 13.3622 111.603 13.8818C111.056 14.3924 110.394 14.6477 109.614 14.6477Z" fill="white"/>
<path d="M121.899 26.123V38.2164H117.035V17.577H121.684V21.0841H121.926C122.401 19.9285 123.158 19.0103 124.197 18.3295C125.245 17.6487 126.539 17.3083 128.08 17.3083C129.505 17.3083 130.745 17.6129 131.802 18.222C132.868 18.8311 133.692 19.7135 134.275 20.8691C134.866 22.0247 135.157 23.4266 135.148 25.0749V38.2164H130.284V25.8274C130.284 24.4479 129.926 23.3684 129.209 22.5891C128.501 21.8097 127.52 21.42 126.266 21.42C125.415 21.42 124.658 21.6082 123.995 21.9844C123.341 22.3517 122.826 22.8847 122.45 23.5834C122.083 24.2821 121.899 25.1287 121.899 26.123Z" fill="white"/>
<defs>
<clipPath id="clip0_452_233">
<rect width="34.1483" height="48" fill="white"/>
</clipPath>
</defs>
</svg>
