<svg width="35" height="48" viewBox="0 0 35 48" fill="none" xmlns="http://www.w3.org/2000/svg">
<g id="swin_logo" clip-path="url(#clip0_245_910)">
<path id="Vector" d="M34.2694 16.8449L23.9866 27.5785C23.3357 28.1734 22.3049 28.1193 21.7081 27.4702C21.1656 26.8753 21.1656 25.9557 21.7081 25.3606L29.1697 17.44V17.3858H6.16712C6.16712 17.3858 6.11286 17.3858 6.11286 17.44L18.8077 30.0973C19.079 30.3677 19.2417 30.6923 19.296 31.0709L19.1702 46.2692C19.2244 46.9182 18.8989 47.5133 18.3021 47.8378C18.0851 47.946 17.8138 48.0001 17.5426 48.0001H11.9547C11.0867 47.8378 10.4899 46.9724 10.6527 46.1069C10.7612 45.4578 11.3037 44.9169 11.9547 44.8087H15.7523C15.7523 44.8087 15.8066 44.8087 15.8066 44.7547L16.0952 31.9364V31.8823L1.01323 16.8449C0.579214 16.4123 0.416456 15.709 0.687713 15.114C0.958971 14.519 1.50149 14.1404 2.15251 14.1404H33.1301C33.9981 14.1404 34.7034 14.8435 34.7034 15.7631C34.7034 16.1418 34.5406 16.5204 34.2694 16.8449Z" fill="#808080"/>
<path id="Vector_2" d="M19.7936 2.16433C19.7936 0.969003 18.8246 0 17.6292 0C16.4339 0 15.4649 0.969003 15.4649 2.16433V7.6473C15.4649 8.84262 16.4339 9.81162 17.6292 9.81162C18.8246 9.81162 19.7936 8.84262 19.7936 7.6473V2.16433Z" fill="#808080"/>
<path id="Vector_3" d="M8.80521 5.3712L8.8052 5.37121C8.03026 6.17368 8.05258 7.45243 8.85506 8.22738L10.1102 9.43946C10.9127 10.2144 12.1914 10.1921 12.9664 9.38961L12.9664 9.3896C13.7413 8.58712 13.719 7.30837 12.9165 6.53343L11.6614 5.32135C10.8589 4.5464 9.58015 4.56872 8.80521 5.3712Z" fill="#808080"/>
<path id="Vector_4" d="M26.1024 5.21784L26.1024 5.21784C25.2669 4.47864 23.9903 4.55671 23.2511 5.39223L22.0949 6.69905C21.3557 7.53457 21.4338 8.81113 22.2693 9.55033L22.2693 9.55034C23.1048 10.2895 24.3814 10.2115 25.1206 9.37594L26.2768 8.06912C27.016 7.2336 26.9379 5.95704 26.1024 5.21784Z" fill="#808080"/>
<path id="Vector_5" d="M34.2694 16.8449L23.9866 27.5785C23.3357 28.1734 22.3049 28.1193 21.7081 27.4702C21.1656 26.8753 21.1656 25.9557 21.7081 25.3606L29.1697 17.44V17.3858H6.16712C6.16712 17.3858 6.11286 17.3858 6.11286 17.44L18.8077 30.0973C19.079 30.3677 19.2417 30.6923 19.296 31.0709L19.1702 46.2692C19.2244 46.9182 18.8989 47.5133 18.3021 47.8378C18.0851 47.946 17.8138 48.0001 17.5426 48.0001H11.9547C11.0867 47.8378 10.4899 46.9724 10.6527 46.1069C10.7612 45.4578 11.3037 44.9169 11.9547 44.8087H15.7523C15.7523 44.8087 15.8066 44.8087 15.8066 44.7547L16.0952 31.9364V31.8823L1.01323 16.8449C0.579214 16.4123 0.416456 15.709 0.687713 15.114C0.958971 14.519 1.50149 14.1404 2.15251 14.1404H33.1301C33.9981 14.1404 34.7034 14.8435 34.7034 15.7631C34.7034 16.1418 34.5406 16.5204 34.2694 16.8449Z" fill="#808080"/>
</g>
<defs>
<clipPath id="clip0_245_910">
<rect width="34.1483" height="48" fill="white" transform="translate(0.555099)"/>
</clipPath>
</defs>
</svg>
