<svg width="56" height="56" viewBox="0 0 56 56" fill="none" xmlns="http://www.w3.org/2000/svg">
<g clip-path="url(#clip0_245_1067)">
<path d="M35 2.33331H21V6.99998H35V2.33331ZM25.6667 32.6666H30.3333V18.6666H25.6667V32.6666ZM44.4033 17.2433L47.7167 13.93C46.7133 12.74 45.6167 11.62 44.4267 10.64L41.1133 13.9533C37.4967 11.06 32.9467 9.33331 28 9.33331C16.4033 9.33331 7 18.7366 7 30.3333C7 41.93 16.38 51.3333 28 51.3333C39.62 51.3333 49 41.93 49 30.3333C49 25.3866 47.2733 20.8366 44.4033 17.2433ZM28 46.6666C18.97 46.6666 11.6667 39.3633 11.6667 30.3333C11.6667 21.3033 18.97 14 28 14C37.03 14 44.3333 21.3033 44.3333 30.3333C44.3333 39.3633 37.03 46.6666 28 46.6666Z" fill="#00DFC4"/>
</g>
<defs>
<clipPath id="clip0_245_1067">
<rect width="56" height="56" fill="white"/>
</clipPath>
</defs>
</svg>
